<svg id="Capa_1" enable-background="new 0 0 512 512" height="512" viewBox="0 0 512 512" width="512" xmlns="http://www.w3.org/2000/svg"><g><g fill="#e3f9fd"><path d="m174.703 13.313c-56.547 18.941-104.945 57.252-136.279 107.877-30.927 49.967-43.836 109.402-36.347 167.359l29.773-3.846c-6.606-51.136 4.793-103.595 32.1-147.713 27.654-44.678 70.373-78.491 120.288-95.211 23.347-7.82 47.548-11.745 71.761-11.753l15.036-15.028-15.035-14.996c-27.435.007-54.852 4.453-81.297 13.311z"/><path d="m200.668 475.219c-41.103-10.212-78.423-31.383-107.926-61.225l-21.349 21.105c33.381 33.765 75.58 57.713 122.037 69.255 20.537 5.102 41.453 7.645 62.323 7.644.083 0 .165-.002.248-.003l29.922-12.682-29.923-17.342c-18.525.02-37.097-2.222-55.332-6.752z"/></g><g><g><path d="m56.72 440.672c-25.047 0-45.426-20.377-45.426-45.424s20.378-45.424 45.426-45.424 45.425 20.377 45.425 45.424c.001 25.047-20.377 45.424-45.425 45.424z" fill="#ffe144"/></g></g><g><g><path d="m256 91.5c-90.704 0-164.498 73.793-164.498 164.497 0 90.705 73.793 164.498 164.498 164.498l48.573-164.498z" fill="#66e5c2"/><path d="m420.498 255.998c0-90.704-73.794-164.498-164.498-164.498v328.995c90.704.001 164.498-73.793 164.498-164.497z" fill="#4eb8c2"/></g><g><g><path d="m192.064 298.249-42.252-42.251 42.252-42.251 21.254 21.255-20.996 20.996 20.996 20.996z" fill="#3869ad"/></g><g><path d="m320.633 298.249-21.255-21.255 20.996-20.996-20.996-20.996 21.255-21.255 42.251 42.251z" fill="#0053a0"/></g></g><g><path d="m226.623 324.788 29.377 6.147 9.036-82.353-9.036-67.521z" fill="#3869ad"/><path d="m256 181.061v149.874l30.073-143.727z" fill="#0053a0"/></g></g><path d="m510.479 228.113-29.84 3.298c5.58 50.478-6.37 102.08-33.647 145.3-27.656 43.817-69.999 77.03-119.232 93.52-23.26 7.791-47.469 11.712-71.759 11.739v30.025c27.513-.027 54.942-4.471 81.296-13.298 55.773-18.681 103.747-56.313 135.083-105.964 30.892-48.947 44.424-107.41 38.099-164.62z" fill="#cce6fc"/><path d="m312.892 37.332c41.348 10.801 78.637 32.919 107.834 63.964l21.869-20.567c-33.07-35.163-75.297-60.213-122.115-72.443-21.193-5.537-42.843-8.29-64.48-8.284v30.024c19.094-.006 38.195 2.422 56.892 7.306z" fill="#cce6fc"/><g><path d="m454.056 166.881c-25.047 0-45.426-20.377-45.426-45.424s20.378-45.424 45.426-45.424 45.425 20.377 45.425 45.424-20.378 45.424-45.425 45.424z" fill="#ffb654"/></g></g></svg>